<mxfile host="app.diagrams.net" modified="2024-04-10T13:26:01.500Z" agent="Mozilla/5.0 (Windows NT 10.0; Win64; x64) AppleWebKit/537.36 (KHTML, like Gecko) Chrome/122.0.0.0 Safari/537.36 Edg/122.0.0.0" etag="aVOJjLu2jNcxlFftzoZB" version="24.0.1" type="github">
  <diagram name="第 1 页" id="hSqG_CCKfEIWVgFpajzO">
    <mxGraphModel dx="1402" dy="585" grid="0" gridSize="10" guides="1" tooltips="1" connect="1" arrows="1" fold="1" page="0" pageScale="1" pageWidth="827" pageHeight="1169" math="0" shadow="0">
      <root>
        <mxCell id="0" />
        <mxCell id="1" parent="0" />
        <mxCell id="6P12n0_8ahK5D_nTuzGC-1" value="" style="rounded=0;whiteSpace=wrap;html=1;" vertex="1" parent="1">
          <mxGeometry x="39" y="158" width="132" height="48" as="geometry" />
        </mxCell>
        <mxCell id="6P12n0_8ahK5D_nTuzGC-2" value="" style="rounded=0;whiteSpace=wrap;html=1;" vertex="1" parent="1">
          <mxGeometry x="39" y="236" width="132" height="45" as="geometry" />
        </mxCell>
        <mxCell id="6P12n0_8ahK5D_nTuzGC-4" value="" style="rounded=0;whiteSpace=wrap;html=1;" vertex="1" parent="1">
          <mxGeometry x="39" y="314" width="132" height="45" as="geometry" />
        </mxCell>
        <mxCell id="6P12n0_8ahK5D_nTuzGC-5" value="" style="rounded=0;whiteSpace=wrap;html=1;" vertex="1" parent="1">
          <mxGeometry x="213" y="157" width="98" height="202" as="geometry" />
        </mxCell>
        <mxCell id="6P12n0_8ahK5D_nTuzGC-10" value="业务逻辑层" style="text;strokeColor=none;fillColor=none;html=1;align=center;verticalAlign=middle;whiteSpace=wrap;rounded=0;fontSize=16;" vertex="1" parent="1">
          <mxGeometry x="49" y="167" width="107" height="30" as="geometry" />
        </mxCell>
        <mxCell id="6P12n0_8ahK5D_nTuzGC-12" value="网络模块" style="text;strokeColor=none;fillColor=none;html=1;align=center;verticalAlign=middle;whiteSpace=wrap;rounded=0;fontSize=16;" vertex="1" parent="1">
          <mxGeometry x="54" y="321.5" width="107" height="30" as="geometry" />
        </mxCell>
        <mxCell id="6P12n0_8ahK5D_nTuzGC-13" value="启动模块" style="text;strokeColor=none;fillColor=none;html=1;align=center;verticalAlign=middle;whiteSpace=wrap;rounded=0;fontSize=16;" vertex="1" parent="1">
          <mxGeometry x="208.5" y="174.5" width="107" height="167" as="geometry" />
        </mxCell>
        <mxCell id="6P12n0_8ahK5D_nTuzGC-14" value="&lt;font style=&quot;font-size: 12px;&quot;&gt;图1 客户端模块视图&lt;/font&gt;" style="text;strokeColor=none;fillColor=none;html=1;align=center;verticalAlign=middle;whiteSpace=wrap;rounded=0;fontSize=12;" vertex="1" parent="1">
          <mxGeometry x="473" y="331" width="197" height="30" as="geometry" />
        </mxCell>
        <mxCell id="6P12n0_8ahK5D_nTuzGC-16" value="" style="rounded=0;whiteSpace=wrap;html=1;" vertex="1" parent="1">
          <mxGeometry x="420" y="185" width="181" height="42" as="geometry" />
        </mxCell>
        <mxCell id="6P12n0_8ahK5D_nTuzGC-17" value="" style="rounded=0;whiteSpace=wrap;html=1;" vertex="1" parent="1">
          <mxGeometry x="420" y="263" width="181" height="45" as="geometry" />
        </mxCell>
        <mxCell id="6P12n0_8ahK5D_nTuzGC-18" value="" style="rounded=0;whiteSpace=wrap;html=1;" vertex="1" parent="1">
          <mxGeometry x="634" y="178" width="79" height="135" as="geometry" />
        </mxCell>
        <mxCell id="6P12n0_8ahK5D_nTuzGC-20" value="网络模块" style="text;strokeColor=none;fillColor=none;html=1;align=center;verticalAlign=middle;whiteSpace=wrap;rounded=0;fontSize=16;" vertex="1" parent="1">
          <mxGeometry x="456.5" y="269" width="108" height="30" as="geometry" />
        </mxCell>
        <mxCell id="6P12n0_8ahK5D_nTuzGC-22" value="数据层" style="text;strokeColor=none;fillColor=none;html=1;align=center;verticalAlign=middle;whiteSpace=wrap;rounded=0;fontSize=16;" vertex="1" parent="1">
          <mxGeometry x="49" y="243.5" width="108" height="30" as="geometry" />
        </mxCell>
        <mxCell id="6P12n0_8ahK5D_nTuzGC-23" value="启动模块" style="text;strokeColor=none;fillColor=none;html=1;align=center;verticalAlign=middle;whiteSpace=wrap;rounded=0;fontSize=16;" vertex="1" parent="1">
          <mxGeometry x="637.5" y="191" width="72" height="105" as="geometry" />
        </mxCell>
        <mxCell id="6P12n0_8ahK5D_nTuzGC-24" value="&lt;font style=&quot;font-size: 12px;&quot;&gt;图3 添加订单用例层之间的调用&lt;/font&gt;" style="text;strokeColor=none;fillColor=none;html=1;align=center;verticalAlign=middle;whiteSpace=wrap;rounded=0;fontSize=12;" vertex="1" parent="1">
          <mxGeometry x="233" y="442" width="197" height="30" as="geometry" />
        </mxCell>
        <mxCell id="6P12n0_8ahK5D_nTuzGC-29" value="展示层" style="text;strokeColor=none;fillColor=none;html=1;align=center;verticalAlign=middle;whiteSpace=wrap;rounded=0;fontSize=16;" vertex="1" parent="1">
          <mxGeometry x="478.5" y="191" width="60" height="30" as="geometry" />
        </mxCell>
        <mxCell id="6P12n0_8ahK5D_nTuzGC-30" value="pkg" style="shape=umlFrame;whiteSpace=wrap;html=1;pointerEvents=0;" vertex="1" parent="1">
          <mxGeometry x="4" y="483" width="628" height="385" as="geometry" />
        </mxCell>
        <mxCell id="6P12n0_8ahK5D_nTuzGC-33" value="&lt;p style=&quot;margin:0px;margin-top:4px;text-align:center;&quot;&gt;&lt;b&gt;OrdersController&lt;/b&gt;&lt;/p&gt;&lt;hr size=&quot;1&quot; style=&quot;border-style:solid;&quot;&gt;&lt;div style=&quot;height:2px;&quot;&gt;&lt;/div&gt;&lt;hr size=&quot;1&quot; style=&quot;border-style:solid;&quot;&gt;&lt;div style=&quot;height:2px;&quot;&gt;&lt;/div&gt;" style="verticalAlign=top;align=left;overflow=fill;html=1;whiteSpace=wrap;" vertex="1" parent="1">
          <mxGeometry x="18" y="557" width="120" height="54" as="geometry" />
        </mxCell>
        <mxCell id="6P12n0_8ahK5D_nTuzGC-34" value="Use" style="endArrow=open;endSize=12;dashed=1;html=1;rounded=0;fontSize=12;curved=1;" edge="1" parent="1">
          <mxGeometry width="160" relative="1" as="geometry">
            <mxPoint x="145" y="583" as="sourcePoint" />
            <mxPoint x="222" y="583" as="targetPoint" />
          </mxGeometry>
        </mxCell>
        <mxCell id="6P12n0_8ahK5D_nTuzGC-35" value="&lt;p style=&quot;margin:0px;margin-top:4px;text-align:center;&quot;&gt;&lt;i&gt;&amp;lt;&amp;lt;Interface&amp;gt;&amp;gt;&lt;/i&gt;&lt;br&gt;&lt;b&gt;OrdersService&lt;/b&gt;&lt;/p&gt;&lt;hr size=&quot;1&quot; style=&quot;border-style:solid;&quot;&gt;&lt;p style=&quot;margin:0px;margin-left:4px;&quot;&gt;+ saveOrders: OrdersVo&lt;/p&gt;&lt;p style=&quot;margin:0px;margin-left:4px;&quot;&gt;+ deleteOrdersById: OrdersVo&lt;/p&gt;&lt;p style=&quot;margin:0px;margin-left:4px;&quot;&gt;&lt;br&gt;&lt;/p&gt;" style="verticalAlign=top;align=left;overflow=fill;html=1;whiteSpace=wrap;" vertex="1" parent="1">
          <mxGeometry x="230" y="526.5" width="190" height="101" as="geometry" />
        </mxCell>
        <mxCell id="6P12n0_8ahK5D_nTuzGC-36" value="&lt;p style=&quot;margin:0px;margin-top:4px;text-align:center;&quot;&gt;&lt;b&gt;OrdersServiceImpl&lt;/b&gt;&lt;/p&gt;&lt;hr size=&quot;1&quot; style=&quot;border-style:solid;&quot;&gt;&lt;div style=&quot;height:2px;&quot;&gt;&lt;/div&gt;&lt;hr size=&quot;1&quot; style=&quot;border-style:solid;&quot;&gt;&lt;div style=&quot;height:2px;&quot;&gt;&lt;/div&gt;" style="verticalAlign=top;align=left;overflow=fill;html=1;whiteSpace=wrap;" vertex="1" parent="1">
          <mxGeometry x="252" y="659" width="120" height="47" as="geometry" />
        </mxCell>
        <mxCell id="6P12n0_8ahK5D_nTuzGC-37" value="" style="endArrow=block;dashed=1;endFill=0;endSize=12;html=1;rounded=0;fontSize=12;" edge="1" parent="1" target="6P12n0_8ahK5D_nTuzGC-35">
          <mxGeometry width="160" relative="1" as="geometry">
            <mxPoint x="325" y="659" as="sourcePoint" />
            <mxPoint x="481" y="659" as="targetPoint" />
          </mxGeometry>
        </mxCell>
        <mxCell id="6P12n0_8ahK5D_nTuzGC-39" value="&lt;p style=&quot;margin:0px;margin-top:4px;text-align:center;&quot;&gt;&lt;i&gt;&amp;lt;&amp;lt;Interface&amp;gt;&amp;gt;&lt;/i&gt;&lt;br&gt;&lt;b&gt;OrdersRepository&lt;/b&gt;&lt;/p&gt;&lt;hr size=&quot;1&quot; style=&quot;border-style:solid;&quot;&gt;&lt;p style=&quot;margin:0px;margin-left:4px;&quot;&gt;+ save(po: OrdersPo）: OrdersPo&lt;/p&gt;&lt;p style=&quot;margin:0px;margin-left:4px;&quot;&gt;+ deleteById(po: OrdersPo) :void&lt;/p&gt;&lt;p style=&quot;margin:0px;margin-left:4px;&quot;&gt;&lt;br&gt;&lt;/p&gt;" style="verticalAlign=top;align=left;overflow=fill;html=1;whiteSpace=wrap;" vertex="1" parent="1">
          <mxGeometry x="434" y="645" width="189" height="105" as="geometry" />
        </mxCell>
        <mxCell id="6P12n0_8ahK5D_nTuzGC-41" value="Use" style="endArrow=open;endSize=12;dashed=1;html=1;rounded=0;fontSize=12;exitX=1;exitY=0.5;exitDx=0;exitDy=0;edgeStyle=orthogonalEdgeStyle;" edge="1" parent="1" source="6P12n0_8ahK5D_nTuzGC-36" target="6P12n0_8ahK5D_nTuzGC-39">
          <mxGeometry width="160" relative="1" as="geometry">
            <mxPoint x="411" y="763" as="sourcePoint" />
            <mxPoint x="615" y="709" as="targetPoint" />
          </mxGeometry>
        </mxCell>
        <mxCell id="6P12n0_8ahK5D_nTuzGC-44" value="" style="endArrow=block;dashed=1;endFill=0;endSize=12;html=1;rounded=0;fontSize=12;exitX=0.5;exitY=0;exitDx=0;exitDy=0;entryX=0.381;entryY=0.994;entryDx=0;entryDy=0;entryPerimeter=0;" edge="1" parent="1" source="6P12n0_8ahK5D_nTuzGC-45" target="6P12n0_8ahK5D_nTuzGC-39">
          <mxGeometry width="160" relative="1" as="geometry">
            <mxPoint x="328" y="677" as="sourcePoint" />
            <mxPoint x="504" y="752" as="targetPoint" />
          </mxGeometry>
        </mxCell>
        <mxCell id="6P12n0_8ahK5D_nTuzGC-45" value="&lt;p style=&quot;margin:0px;margin-top:4px;text-align:center;&quot;&gt;&lt;b&gt;OrdersRepositoryMySqlImpl&lt;/b&gt;&lt;/p&gt;&lt;hr size=&quot;1&quot; style=&quot;border-style:solid;&quot;&gt;&lt;div style=&quot;height:2px;&quot;&gt;&lt;/div&gt;&lt;hr size=&quot;1&quot; style=&quot;border-style:solid;&quot;&gt;&lt;div style=&quot;height:2px;&quot;&gt;&lt;/div&gt;" style="verticalAlign=top;align=left;overflow=fill;html=1;whiteSpace=wrap;" vertex="1" parent="1">
          <mxGeometry x="407" y="808" width="199" height="47" as="geometry" />
        </mxCell>
        <mxCell id="6P12n0_8ahK5D_nTuzGC-46" value="" style="rounded=1;whiteSpace=wrap;html=1;" vertex="1" parent="1">
          <mxGeometry x="353" y="1529" width="120" height="60" as="geometry" />
        </mxCell>
        <mxCell id="6P12n0_8ahK5D_nTuzGC-47" value="登录注册界面" style="text;strokeColor=none;fillColor=none;html=1;align=center;verticalAlign=middle;whiteSpace=wrap;rounded=0;fontSize=16;" vertex="1" parent="1">
          <mxGeometry x="361" y="1534" width="115" height="50" as="geometry" />
        </mxCell>
        <mxCell id="6P12n0_8ahK5D_nTuzGC-50" value="" style="endArrow=classic;startArrow=classic;html=1;rounded=0;fontSize=12;startSize=8;endSize=8;curved=1;" edge="1" parent="1">
          <mxGeometry width="50" height="50" relative="1" as="geometry">
            <mxPoint x="413" y="1525" as="sourcePoint" />
            <mxPoint x="413" y="1458" as="targetPoint" />
          </mxGeometry>
        </mxCell>
        <mxCell id="6P12n0_8ahK5D_nTuzGC-51" value="" style="rounded=1;whiteSpace=wrap;html=1;" vertex="1" parent="1">
          <mxGeometry x="353" y="1408" width="120" height="48" as="geometry" />
        </mxCell>
        <mxCell id="6P12n0_8ahK5D_nTuzGC-52" value="顾客个人信息界面" style="text;strokeColor=none;fillColor=none;html=1;align=center;verticalAlign=middle;whiteSpace=wrap;rounded=0;fontSize=16;" vertex="1" parent="1">
          <mxGeometry x="373.5" y="1417" width="79" height="30" as="geometry" />
        </mxCell>
        <mxCell id="6P12n0_8ahK5D_nTuzGC-53" value="" style="endArrow=classic;startArrow=classic;html=1;rounded=0;fontSize=12;startSize=8;endSize=8;curved=1;exitX=1;exitY=0.5;exitDx=0;exitDy=0;" edge="1" parent="1">
          <mxGeometry width="50" height="50" relative="1" as="geometry">
            <mxPoint x="473" y="1558.5" as="sourcePoint" />
            <mxPoint x="537" y="1558.5" as="targetPoint" />
          </mxGeometry>
        </mxCell>
        <mxCell id="6P12n0_8ahK5D_nTuzGC-54" value="" style="rounded=1;whiteSpace=wrap;html=1;" vertex="1" parent="1">
          <mxGeometry x="536" y="1534" width="120" height="48" as="geometry" />
        </mxCell>
        <mxCell id="6P12n0_8ahK5D_nTuzGC-56" value="" style="endArrow=classic;startArrow=classic;html=1;rounded=0;fontSize=12;startSize=8;endSize=8;curved=1;exitX=1;exitY=0.5;exitDx=0;exitDy=0;" edge="1" parent="1">
          <mxGeometry width="50" height="50" relative="1" as="geometry">
            <mxPoint x="289" y="1558.5" as="sourcePoint" />
            <mxPoint x="353" y="1558.5" as="targetPoint" />
          </mxGeometry>
        </mxCell>
        <mxCell id="6P12n0_8ahK5D_nTuzGC-58" value="" style="endArrow=classic;startArrow=classic;html=1;rounded=0;fontSize=12;startSize=8;endSize=8;curved=1;" edge="1" parent="1">
          <mxGeometry width="50" height="50" relative="1" as="geometry">
            <mxPoint x="412.5" y="1656" as="sourcePoint" />
            <mxPoint x="412.5" y="1589" as="targetPoint" />
          </mxGeometry>
        </mxCell>
        <mxCell id="6P12n0_8ahK5D_nTuzGC-59" value="" style="rounded=1;whiteSpace=wrap;html=1;" vertex="1" parent="1">
          <mxGeometry x="356" y="1657" width="120" height="48" as="geometry" />
        </mxCell>
        <mxCell id="6P12n0_8ahK5D_nTuzGC-61" value="商场管理人员个人信息界面" style="text;strokeColor=none;fillColor=none;html=1;align=center;verticalAlign=middle;whiteSpace=wrap;rounded=0;fontSize=16;" vertex="1" parent="1">
          <mxGeometry x="546.5" y="1538.5" width="99" height="36.5" as="geometry" />
        </mxCell>
        <mxCell id="6P12n0_8ahK5D_nTuzGC-62" value="" style="rounded=1;whiteSpace=wrap;html=1;" vertex="1" parent="1">
          <mxGeometry x="171" y="1535" width="120" height="48" as="geometry" />
        </mxCell>
        <mxCell id="6P12n0_8ahK5D_nTuzGC-60" value="商店工作人员个人信息界面" style="text;strokeColor=none;fillColor=none;html=1;align=center;verticalAlign=middle;whiteSpace=wrap;rounded=0;fontSize=16;" vertex="1" parent="1">
          <mxGeometry x="181.5" y="1541" width="99" height="36" as="geometry" />
        </mxCell>
        <mxCell id="6P12n0_8ahK5D_nTuzGC-64" value="CEO个人信息界面" style="text;strokeColor=none;fillColor=none;html=1;align=center;verticalAlign=middle;whiteSpace=wrap;rounded=0;fontSize=16;" vertex="1" parent="1">
          <mxGeometry x="373.5" y="1666" width="79" height="30" as="geometry" />
        </mxCell>
        <mxCell id="6P12n0_8ahK5D_nTuzGC-65" value="" style="endArrow=classic;startArrow=classic;html=1;rounded=0;fontSize=12;startSize=8;endSize=8;" edge="1" parent="1">
          <mxGeometry width="50" height="50" relative="1" as="geometry">
            <mxPoint x="656" y="1557.75" as="sourcePoint" />
            <mxPoint x="708" y="1558" as="targetPoint" />
          </mxGeometry>
        </mxCell>
        <mxCell id="6P12n0_8ahK5D_nTuzGC-72" value="" style="rounded=1;whiteSpace=wrap;html=1;" vertex="1" parent="1">
          <mxGeometry x="709.5" y="1532.75" width="120" height="48" as="geometry" />
        </mxCell>
        <mxCell id="6P12n0_8ahK5D_nTuzGC-71" value="创建商店界面" style="text;strokeColor=none;fillColor=none;html=1;align=center;verticalAlign=middle;whiteSpace=wrap;rounded=0;fontSize=16;" vertex="1" parent="1">
          <mxGeometry x="720" y="1541" width="99" height="30" as="geometry" />
        </mxCell>
        <mxCell id="6P12n0_8ahK5D_nTuzGC-75" value="" style="rounded=1;whiteSpace=wrap;html=1;" vertex="1" parent="1">
          <mxGeometry x="625" y="1629" width="120" height="48" as="geometry" />
        </mxCell>
        <mxCell id="6P12n0_8ahK5D_nTuzGC-76" value="商场订单列表界面" style="text;strokeColor=none;fillColor=none;html=1;align=center;verticalAlign=middle;whiteSpace=wrap;rounded=0;fontSize=16;" vertex="1" parent="1">
          <mxGeometry x="644" y="1636" width="76" height="30" as="geometry" />
        </mxCell>
        <mxCell id="6P12n0_8ahK5D_nTuzGC-78" value="" style="endArrow=classic;startArrow=classic;html=1;rounded=0;fontSize=12;startSize=8;endSize=8;curved=1;" edge="1" parent="1">
          <mxGeometry width="50" height="50" relative="1" as="geometry">
            <mxPoint x="478.5" y="1691" as="sourcePoint" />
            <mxPoint x="624" y="1673" as="targetPoint" />
          </mxGeometry>
        </mxCell>
        <mxCell id="6P12n0_8ahK5D_nTuzGC-79" value="" style="endArrow=classic;startArrow=classic;html=1;rounded=0;fontSize=12;startSize=8;endSize=8;curved=1;entryX=0.59;entryY=0.987;entryDx=0;entryDy=0;entryPerimeter=0;" edge="1" parent="1" target="6P12n0_8ahK5D_nTuzGC-54">
          <mxGeometry width="50" height="50" relative="1" as="geometry">
            <mxPoint x="664" y="1626" as="sourcePoint" />
            <mxPoint x="494" y="1475" as="targetPoint" />
          </mxGeometry>
        </mxCell>
        <mxCell id="6P12n0_8ahK5D_nTuzGC-80" value="" style="endArrow=classic;startArrow=classic;html=1;rounded=0;fontSize=12;startSize=8;endSize=8;" edge="1" parent="1">
          <mxGeometry width="50" height="50" relative="1" as="geometry">
            <mxPoint x="113" y="1558.5" as="sourcePoint" />
            <mxPoint x="165" y="1558.75" as="targetPoint" />
          </mxGeometry>
        </mxCell>
        <mxCell id="6P12n0_8ahK5D_nTuzGC-82" value="" style="rounded=1;whiteSpace=wrap;html=1;" vertex="1" parent="1">
          <mxGeometry x="-6" y="1534" width="120" height="48" as="geometry" />
        </mxCell>
        <mxCell id="6P12n0_8ahK5D_nTuzGC-81" value="个人商店界面" style="text;strokeColor=none;fillColor=none;html=1;align=center;verticalAlign=middle;whiteSpace=wrap;rounded=0;fontSize=16;" vertex="1" parent="1">
          <mxGeometry x="4" y="1539" width="99" height="36" as="geometry" />
        </mxCell>
      </root>
    </mxGraphModel>
  </diagram>
</mxfile>
